# xmcd
#
# Track frame offsets:
#	150
#	27978
#	60079
#
# Disc length: 1088 seconds
#
# Revision: 1
# Processed by: cddbd v1.5.1PL0 Copyright (c) Steve Scherf et al.
# Submitted via: EasyCDDAExtractor 5.1.0
#
DISCID=18043e03
DTITLE=Deep Purple - Saratoga Springs 17-08-04 Disc 2
DYEAR=2004
DGENRE=Hard Rock
TTITLE0=Smoke On The Water
TTITLE1=Speed King
TTITLE2=Hush
EXTD=
EXTT0=
EXTT1=
EXTT2=
PLAYORDER=
